<svg width="20" height="20" viewBox="0 0 20 20" fill="none" xmlns="http://www.w3.org/2000/svg">
<path d="M9.99699 16.532C10.2419 16.532 10.4783 16.622 10.6614 16.7847C10.8444 16.9475 10.9613 17.1717 10.99 17.415L10.997 17.532V18.988C10.9965 19.2428 10.8987 19.4878 10.7236 19.6729C10.5486 19.8581 10.3095 19.9694 10.0551 19.9842C9.80073 19.999 9.55031 19.9162 9.35496 19.7526C9.15962 19.589 9.03408 19.357 9.00399 19.104L8.99699 18.988V17.532C8.99699 17.2668 9.10235 17.0124 9.28988 16.8249C9.47742 16.6374 9.73177 16.532 9.99699 16.532ZM16.033 14.6L17.063 15.63C17.245 15.8187 17.3456 16.0714 17.3432 16.3336C17.3407 16.5958 17.2354 16.8465 17.0498 17.0318C16.8643 17.2171 16.6134 17.3221 16.3512 17.3242C16.089 17.3263 15.8365 17.2253 15.648 17.043L14.619 16.014C14.4368 15.8254 14.336 15.5728 14.3383 15.3106C14.3406 15.0484 14.4458 14.7976 14.6312 14.6122C14.8166 14.4268 15.0674 14.3216 15.3296 14.3193C15.5918 14.317 15.8444 14.4178 16.033 14.6ZM5.37299 14.6C5.56046 14.7875 5.66578 15.0418 5.66578 15.307C5.66578 15.5722 5.56046 15.8265 5.37299 16.014L4.34499 17.044C4.15735 17.2316 3.90285 17.3371 3.63749 17.3371C3.37213 17.3371 3.11763 17.2316 2.92999 17.044C2.74235 16.8564 2.63693 16.6019 2.63693 16.3365C2.63693 16.0711 2.74235 15.8166 2.92999 15.629L3.95999 14.599C4.14752 14.4115 4.40183 14.3062 4.66699 14.3062C4.93216 14.3062 5.18646 14.4115 5.37399 14.599L5.37299 14.6ZM10.01 4.472C11.4753 4.472 12.8806 5.0541 13.9168 6.09024C14.9529 7.12637 15.535 8.53168 15.535 9.997C15.535 11.4623 14.9529 12.8676 13.9168 13.9038C12.8806 14.9399 11.4753 15.522 10.01 15.522C8.54467 15.522 7.13936 14.9399 6.10323 13.9038C5.06709 12.8676 4.48499 11.4623 4.48499 9.997C4.48499 8.53168 5.06709 7.12637 6.10323 6.09024C7.13936 5.0541 8.54467 4.472 10.01 4.472ZM9.24999 7C9.06875 7.00001 8.89365 7.06564 8.75706 7.18477C8.62047 7.30389 8.53164 7.46845 8.50699 7.648L8.49999 7.75V10.754L8.50699 10.856C8.52931 11.0183 8.60415 11.1688 8.72008 11.2846C8.83601 11.4003 8.98666 11.4749 9.14899 11.497L9.24999 11.504H11.25L11.352 11.497C11.5141 11.4747 11.6646 11.4 11.7803 11.2843C11.896 11.1686 11.9707 11.0182 11.993 10.856L12 10.754L11.993 10.652C11.9707 10.4898 11.896 10.3394 11.7803 10.2237C11.6646 10.108 11.5141 10.0333 11.352 10.011L11.25 10.004H9.99999V7.75L9.99399 7.648C9.96932 7.46828 9.88034 7.30358 9.74354 7.18444C9.60675 7.06529 9.4314 6.99977 9.24999 7ZM18.977 9.018C19.2319 9.01828 19.477 9.11588 19.6624 9.29085C19.8477 9.46582 19.9592 9.70495 19.9742 9.95939C19.9891 10.2138 19.9063 10.4644 19.7427 10.6598C19.5791 10.8553 19.3471 10.9809 19.094 11.011L18.977 11.018H17.522C17.2671 11.0177 17.022 10.9201 16.8366 10.7452C16.6513 10.5702 16.5398 10.331 16.5248 10.0766C16.5099 9.82216 16.5927 9.57162 16.7563 9.37617C16.9198 9.18071 17.1519 9.0551 17.405 9.025L17.522 9.018H18.978H18.977ZM2.47999 8.99C2.73487 8.99028 2.98002 9.08788 3.16536 9.26285C3.3507 9.43782 3.46223 9.67695 3.47716 9.93139C3.4921 10.1858 3.40932 10.4364 3.24573 10.6318C3.08214 10.8273 2.85009 10.9529 2.59699 10.983L2.47999 10.99H1.02299C0.768196 10.9895 0.523214 10.8917 0.338069 10.7166C0.152924 10.5416 0.0415813 10.3025 0.0267763 10.0481C0.0119713 9.79374 0.0948209 9.54332 0.258407 9.34797C0.421994 9.15263 0.653978 9.02709 0.906991 8.997L1.02299 8.99H2.47999ZM4.24999 2.874L4.34499 2.957L5.37399 3.987C5.55334 4.16696 5.65746 4.40843 5.66522 4.66238C5.67297 4.91633 5.58378 5.16371 5.41574 5.35428C5.24771 5.54484 5.01344 5.66431 4.76052 5.6884C4.50759 5.71249 4.25498 5.63941 4.05399 5.484L3.95999 5.4L2.92999 4.371C2.75064 4.19104 2.64652 3.94957 2.63876 3.69562C2.63101 3.44167 2.72021 3.19429 2.88824 3.00372C3.05627 2.81316 3.29054 2.6937 3.54347 2.6696C3.79639 2.64551 4.049 2.71859 4.24999 2.874ZM17.063 2.957C17.2352 3.12919 17.3386 3.35829 17.3539 3.60132C17.3692 3.84435 17.2952 4.0846 17.146 4.277L17.063 4.371L16.033 5.401C15.853 5.58035 15.6116 5.68447 15.3576 5.69223C15.1037 5.69998 14.8563 5.61079 14.6657 5.44275C14.4751 5.27472 14.3557 5.04045 14.3316 4.78753C14.3075 4.5346 14.3806 4.28199 14.536 4.081L14.619 3.986L15.649 2.956C15.8365 2.76853 16.0908 2.66321 16.356 2.66321C16.6212 2.66321 16.8755 2.76953 17.063 2.957ZM9.99999 0.0130005C10.2449 0.0130328 10.4813 0.102957 10.6644 0.265716C10.8474 0.428475 10.9643 0.652749 10.993 0.896L11 1.013V2.468C11.002 2.72443 10.9055 2.97185 10.7302 3.15911C10.555 3.34637 10.3146 3.45917 10.0586 3.47419C9.80259 3.48921 9.55061 3.40531 9.35471 3.23982C9.15881 3.07433 9.03397 2.83991 9.00599 2.585L8.99999 2.468V1.013C8.99999 0.747784 9.10535 0.49343 9.29288 0.305894C9.48042 0.118357 9.73477 0.0130005 9.99999 0.0130005Z" fill="#DAD8F7"/>
</svg>
