<svg width="245" height="148" viewBox="0 0 245 148" fill="none" xmlns="http://www.w3.org/2000/svg">
<path d="M16 122C16 108.08 18.7418 94.296 24.0688 81.4355C29.3958 68.575 37.2037 56.8896 47.0467 47.0466C56.8897 37.2036 68.5751 29.3957 81.4356 24.0687C94.2961 18.7418 108.08 16 122 16C135.92 16 149.704 18.7418 162.565 24.0688C175.425 29.3958 187.11 37.2037 196.953 47.0467C206.796 56.8897 214.604 68.5751 219.931 81.4356C225.258 94.2961 228 108.08 228 122" stroke="#F6C833" stroke-width="2" stroke-dasharray="2 13"/>
<line opacity="0.4" x1="14" y1="121.5" x2="230" y2="121.5" stroke="#F6C833"/>
<path d="M180.143 28.796C181 31.9967 179.101 35.2865 175.902 36.1438C172.7 37.0016 169.411 35.1022 168.553 31.9015C167.695 28.7003 169.595 25.4104 172.796 24.5527C175.995 23.6954 179.285 25.5948 180.143 28.796Z" fill="#F6C833"/>
<line x1="228" y1="126" x2="228" y2="118" stroke="#E5BB46" stroke-width="2"/>
<line x1="16" y1="126" x2="16" y2="118" stroke="#E5BB46" stroke-width="2"/>
</svg>
